<svg width="38" height="40" viewBox="0 0 38 40" fill="none" xmlns="http://www.w3.org/2000/svg">
<path d="M21.9017 1.0176C20.1165 -0.0573014 17.8835 -0.0573001 16.0983 1.01761L14.8076 1.79484C11.6757 3.68069 8.15978 4.83791 4.52008 5.18082L3.70688 5.25743C2.10165 5.40867 0.875 6.75632 0.875 8.36866V12.4784C0.875 19.4249 3.69521 26.0739 8.68959 30.902L16.828 38.7695C18.0393 39.9405 19.9607 39.9405 21.172 38.7695L29.3104 30.902C34.3048 26.0739 37.125 19.4249 37.125 12.4784V8.36866C37.125 6.75632 35.8983 5.40867 34.2931 5.25743L33.4799 5.18082C29.8402 4.83791 26.3243 3.68068 23.1924 1.79484L21.9017 1.0176Z" fill="white"/>
</svg>
