<svg width="49" height="44" viewBox="0 0 49 44" fill="none" xmlns="http://www.w3.org/2000/svg">
<path fill-rule="evenodd" clip-rule="evenodd" d="M48.526 17.4283L48.5325 26.4855C48.4687 27.3483 48.3865 28.2102 48.2859 29.0704C48.1177 30.5089 46.9483 31.6693 45.4798 31.8334C40.8804 32.3474 36.1209 32.3474 31.5215 31.8334C30.053 31.6693 28.8836 30.5089 28.7153 29.0704C28.1659 24.3729 28.1659 19.6273 28.7153 14.9298C28.8836 13.4913 30.053 12.3309 31.5215 12.1668C36.1209 11.6527 40.8804 11.6527 45.4798 12.1668C46.9483 12.3309 48.1177 13.4913 48.2859 14.9298C48.3832 15.7613 48.4632 16.5943 48.526 17.4283ZM38.5006 18.2501C36.4296 18.2501 34.7506 19.929 34.7506 22.0001C34.7506 24.0712 36.4296 25.7501 38.5006 25.7501C40.5717 25.7501 42.2506 24.0712 42.2506 22.0001C42.2506 19.929 40.5717 18.2501 38.5006 18.2501Z" fill="white"/>
<path d="M47.0096 7.09939C47.3983 7.77254 46.6688 8.52633 45.8963 8.43999C41.0201 7.895 35.9812 7.895 31.105 8.43999C27.9316 8.79466 25.3651 11.2935 24.9907 14.4942C24.4075 19.4811 24.4075 24.5191 24.9907 29.506C25.3651 32.7067 27.9316 35.2055 31.1049 35.5602C35.9812 36.1052 41.0201 36.1052 45.8963 35.5602C46.6739 35.4733 47.4095 36.2323 47.017 36.9092C45.0705 40.2663 41.6002 42.6093 37.5677 43.0336L35.938 43.2051C27.6609 44.0761 19.3123 44.0187 11.0479 43.0339L9.96804 42.9052C5.51273 42.3743 1.98261 38.8934 1.38918 34.446C0.286941 26.1853 0.286941 17.8149 1.38918 9.55422C1.98261 5.1068 5.51273 1.62592 9.96804 1.095L11.0479 0.966326C19.3123 -0.0184886 27.6609 -0.0759263 35.938 0.795084L37.5677 0.966574C41.6036 1.39128 45.0684 3.73781 47.0096 7.09939Z" fill="white"/>
</svg>
